HIERARCHY
ROOT Hips
{
	OFFSET 0.000000 0.000000 0.000000
	CHANNELS 6 Xposition Yposition Zposition Xrotation Yrotation Zrotation
	JOINT LeftUpLeg_virtual
	{
		OFFSET 0.000000 0.000000 0.000000
		CHANNELS 3 Xrotation Yrotation Zrotation
		JOINT LeftUpLeg
		{
			OFFSET 11.394100 -6.187798 -0.413800
			CHANNELS 3 Xrotation Yrotation Zrotation
			JOINT LeftLeg
			{
				OFFSET 0.430247 -32.302673 3.732800
				CHANNELS 3 Xrotation Yrotation Zrotation
				JOINT LeftFoot
				{
					OFFSET -0.430247 -48.264931 -6.423300
					CHANNELS 3 Xrotation Yrotation Zrotation
					JOINT LeftToeBase
					{
						OFFSET 4.230900 -16.068199 23.438400
						CHANNELS 3 Xrotation Yrotation Zrotation
						JOINT LeftToe_End
						{
							OFFSET 4.510700 0.695400 19.974600
							CHANNELS 3 Xrotation Yrotation Zrotation
							End Site
							{
								OFFSET 0 0 0
							}
						}
					}
				}
			}
		}
	}
	JOINT RightUpLeg_virtual
	{
		OFFSET 0.000000 0.000000 0.000000
		CHANNELS 3 Xrotation Yrotation Zrotation
		JOINT RightUpLeg
		{
			OFFSET -11.333700 -6.187798 -0.413800
			CHANNELS 3 Xrotation Yrotation Zrotation
			JOINT RightLeg
			{
				OFFSET -0.430392 -32.302628 3.733000
				CHANNELS 3 Xrotation Yrotation Zrotation
				JOINT RightFoot
				{
					OFFSET 0.430392 -48.264973 -6.423500
					CHANNELS 3 Xrotation Yrotation Zrotation
					JOINT RightToeBase
					{
						OFFSET -4.230900 -16.068199 23.438400
						CHANNELS 3 Xrotation Yrotation Zrotation
						JOINT RightToe_End
						{
							OFFSET -4.510700 0.695400 19.974600
							CHANNELS 3 Xrotation Yrotation Zrotation
							End Site
							{
								OFFSET 0 0 0
							}
						}
					}
				}
			}
		}
	}
	JOINT Spine_virtual
	{
		OFFSET 0.000000 0.000000 0.000000
		CHANNELS 3 Xrotation Yrotation Zrotation
		JOINT Spine
		{
			OFFSET -0.002400 12.777504 0.315300
			CHANNELS 3 Xrotation Yrotation Zrotation
			JOINT Spine1
			{
				OFFSET -0.002067 5.816869 0.032633
				CHANNELS 3 Xrotation Yrotation Zrotation
				JOINT Spine1_split
				{
					OFFSET -0.002067 5.816869 0.032633
					CHANNELS 3 Xrotation Yrotation Zrotation
					JOINT Spine2
					{
						OFFSET -0.002067 5.816869 0.032633
						CHANNELS 3 Xrotation Yrotation Zrotation
						JOINT Neck_virtual
						{
							OFFSET 0.000000 0.000000 0.000000
							CHANNELS 3 Xrotation Yrotation Zrotation
							JOINT Neck
							{
								OFFSET -0.003700 21.199493 -0.826900
								CHANNELS 3 Xrotation Yrotation Zrotation
								JOINT Head
								{
									OFFSET 0.000000 20.442200 4.834800
									CHANNELS 3 Xrotation Yrotation Zrotation
									JOINT HeadTop_End
									{
										OFFSET 0.000000 34.668396 4.968400
										CHANNELS 3 Xrotation Yrotation Zrotation
										End Site
										{
											OFFSET 0 0 0
										}
									}
								}
							}
						}
						JOINT LeftShoulder_virtual
						{
							OFFSET 0.000000 0.000000 0.000000
							CHANNELS 3 Xrotation Yrotation Zrotation
							JOINT LeftShoulder
							{
								OFFSET 3.288150 8.794197 -1.372250
								CHANNELS 3 Xrotation Yrotation Zrotation
								JOINT LeftShoulder_split
								{
									OFFSET 3.288150 8.794197 -1.372250
									CHANNELS 3 Xrotation Yrotation Zrotation
									JOINT LeftArm
									{
										OFFSET 11.953299 -2.279007 -0.146200
										CHANNELS 3 Xrotation Yrotation Zrotation
										JOINT LeftForeArm
										{
											OFFSET 18.448900 0.000000 0.000000
											CHANNELS 3 Xrotation Yrotation Zrotation
											JOINT LeftHand
											{
												OFFSET 29.527798 0.000000 0.000000
												CHANNELS 3 Xrotation Yrotation Zrotation
												End Site
												{
													OFFSET 0 0 0
												}
											}
										}
									}
								}
							}
						}
						JOINT RightShoulder_virtual
						{
							OFFSET 0.000000 0.000000 0.000000
							CHANNELS 3 Xrotation Yrotation Zrotation
							JOINT RightShoulder
							{
								OFFSET -3.249400 8.794197 -1.372250
								CHANNELS 3 Xrotation Yrotation Zrotation
								JOINT RightShoulder_split
								{
									OFFSET -3.249400 8.794197 -1.372250
									CHANNELS 3 Xrotation Yrotation Zrotation
									JOINT RightArm
									{
										OFFSET -11.953299 -2.279007 -0.146200
										CHANNELS 3 Xrotation Yrotation Zrotation
										JOINT RightForeArm
										{
											OFFSET -18.448900 0.000000 0.000000
											CHANNELS 3 Xrotation Yrotation Zrotation
											JOINT RightHand
											{
												OFFSET -29.527802 0.000000 0.000000
												CHANNELS 3 Xrotation Yrotation Zrotation
												End Site
												{
													OFFSET 0 0 0
												}
											}
										}
									}
								}
							}
						}
					}
				}
			}
		}
	}
}
MOTION
Frames: 8
Frame Time: 0.03333333
0.339087 79.995010 1.124039 0.000000 0.000000 0.000000 -9.905694 -75.551919 -6.367202 -46.289551 17.230617 50.859060 38.180115 5.222054 -4.107009 10.531780 -6.687406 -24.909336 -1.961961 0.544039 0.969169 0.000000 0.000000 0.000000 -12.631639 -73.267255 -7.764664 -36.166627 -0.494548 -20.784291 56.683112 8.302563 -9.826936 -18.515970 -2.424751 19.210262 6.444602 1.424547 0.784145 0.000000 0.000000 0.000000 -11.683955 -74.784479 -7.587874 4.581066 -2.266729 -2.897267 3.758370 -0.151858 -3.320045 0.512589 0.889516 0.267818 0.000000 0.000000 0.000000 5.690147 0.098360 -3.016476 -5.595737 21.420701 5.489359 2.113554 19.280787 -8.734674 0.000000 0.000000 0.000000 5.996851 -0.184040 -3.397565 0.148820 -4.564810 -18.083541 -2.084531 -2.279684 -1.236044 -44.045715 -23.341490 -5.462685 -6.366997 -33.178501 -4.443610 0.000000 0.000000 0.000000 5.039301 -0.086979 -2.884973 1.994762 15.876023 5.939156 8.338723 4.116150 2.303634 18.607196 74.820016 -6.817434 85.002094 86.726668 -95.968181 0.000000 0.000000 0.000000 
0.280240 80.399895 0.837555 0.000000 0.000000 0.000000 -10.862629 -75.156390 -7.556809 -45.380911 16.759525 50.967531 38.457834 4.857183 -4.000366 11.163814 -6.480215 -24.683435 -1.718616 0.510940 1.228476 0.000000 0.000000 0.000000 -14.007267 -73.313803 -9.172593 -36.192315 -0.450921 -20.554833 55.266056 8.210160 -9.433136 -17.948470 -2.524318 19.383131 6.298344 1.539433 0.557213 0.000000 0.000000 0.000000 -11.868531 -74.957788 -8.041550 4.223054 -2.087461 -2.638011 3.566867 -0.129467 -3.284744 -0.004666 0.864716 0.290235 0.000000 0.000000 0.000000 5.494048 -0.019762 -2.953347 -5.310204 21.519534 5.532360 2.600840 19.818643 -9.210373 0.000000 0.000000 0.000000 5.685121 -0.179496 -3.292783 0.060761 -4.600355 -18.297725 -2.158642 -1.005303 -1.978916 -44.222265 -23.432694 -6.099116 -6.078424 -34.789357 -4.154843 0.000000 0.000000 0.000000 4.924881 -0.091564 -2.902253 2.005874 15.961148 5.742397 8.895518 2.155167 2.121498 17.339016 74.388000 -4.806198 71.558423 86.980588 -82.454351 0.000000 0.000000 0.000000 
0.316697 81.308609 0.444496 0.000000 0.000000 0.000000 -13.618240 -75.244014 -10.602910 -43.316213 16.086796 50.680533 37.583966 4.877715 -3.730663 12.052903 -5.823779 -23.596726 -2.261035 0.327216 1.526172 0.000000 0.000000 0.000000 -16.084187 -73.903221 -11.621260 -36.189279 -0.733557 -20.519847 53.141122 8.426705 -8.981831 -16.099746 -1.661231 19.898556 6.110404 1.635918 0.240000 0.000000 0.000000 0.000000 -14.160189 -75.523902 -10.704553 3.950210 -1.632237 -2.050651 3.691109 -0.138694 -3.106083 -0.167006 0.204722 0.081198 0.000000 0.000000 0.000000 5.607371 -0.138587 -2.769681 -5.540227 21.763628 5.817080 3.196949 21.311263 -9.826535 0.000000 0.000000 0.000000 5.590407 -0.228703 -3.032274 -0.235579 -4.959951 -18.716018 -2.901998 -0.039687 -2.264909 -42.237822 -22.208102 -7.514793 -6.053009 -36.489835 -4.414742 0.000000 0.000000 0.000000 4.978409 -0.082847 -2.744439 2.026811 15.418472 5.820985 8.097896 1.392904 2.128693 15.004252 71.804085 -0.505663 43.985845 86.338523 -54.469184 0.000000 0.000000 0.000000 
0.367328 82.560753 0.028561 0.000000 0.000000 0.000000 -17.432845 -75.745568 -14.773545 -40.423071 15.373489 50.056435 35.662176 5.280219 -3.454478 13.134978 -5.084071 -22.022142 -3.249522 -0.016882 1.813062 0.000000 0.000000 0.000000 -18.570635 -74.539248 -14.689553 -35.749634 -1.179993 -20.496044 50.649370 8.617371 -8.517702 -13.888829 -0.308071 20.267294 6.133863 1.703930 0.117820 0.000000 0.000000 0.000000 -17.581018 -75.964025 -14.552280 3.844988 -1.008500 -1.267068 4.061383 -0.179597 -2.796485 0.293892 -0.678737 0.261473 0.000000 0.000000 0.000000 5.822773 -0.243891 -2.521540 -6.109132 21.944645 6.280868 3.910233 23.494763 -10.509493 0.000000 0.000000 0.000000 5.750739 -0.322703 -2.706365 -0.663936 -5.844217 -19.427554 -3.610982 0.388501 -2.257635 -37.782564 -20.388917 -9.681699 -6.165263 -39.131236 -5.065234 0.000000 0.000000 0.000000 5.218396 -0.034983 -2.464384 2.053285 14.551527 6.273139 6.389041 1.910305 2.095807 12.810052 67.408325 4.916374 24.288226 84.474475 -33.993722 0.000000 0.000000 0.000000 
0.394719 83.998558 -0.189217 0.000000 0.000000 0.000000 -20.964125 -76.271616 -18.687415 -36.992615 14.835045 49.230316 33.058577 5.901274 -3.291936 14.274286 -4.553815 -20.555186 -4.338267 -0.489012 2.256969 0.000000 0.000000 0.000000 -19.875919 -74.568925 -16.641710 -34.522368 -1.582284 -20.331463 47.897210 8.393138 -8.054012 -12.139892 0.747596 19.993067 6.191365 1.731554 0.337752 0.000000 0.000000 0.000000 -21.299866 -76.104509 -18.616741 3.974613 -0.404381 -0.464108 4.508216 -0.273381 -2.385420 0.654973 -1.236917 0.793889 0.000000 0.000000 0.000000 5.951318 -0.364593 -2.243401 -6.704500 22.131324 6.836310 4.755579 25.770386 -11.099096 0.000000 0.000000 0.000000 6.094616 -0.487539 -2.390054 -1.156890 -7.277309 -20.406553 -3.292627 0.340577 -2.123063 -30.611023 -18.844309 -12.104944 -6.161116 -43.509924 -5.747897 0.000000 0.000000 0.000000 5.553793 0.020294 -2.104097 2.003871 13.419080 7.226653 4.286703 3.155052 1.966940 11.489576 61.973803 10.214667 13.402857 81.336119 -21.987765 0.000000 0.000000 0.000000 
0.416308 85.322250 -0.388626 0.000000 0.000000 0.000000 -22.495293 -76.420220 -20.588936 -33.222255 14.460511 48.152260 29.918216 6.743716 -3.315126 15.253639 -4.362386 -19.606732 -5.190305 -1.030615 3.033813 0.000000 0.000000 0.000000 -18.902303 -73.755634 -16.276155 -32.597682 -1.630881 -19.975095 45.055643 7.680507 -7.675685 -11.004236 1.033092 19.295783 6.046539 1.680056 0.849087 0.000000 0.000000 0.000000 -23.918733 -75.871626 -21.390727 4.304107 0.038138 0.178821 4.879234 -0.458589 -1.891833 0.601837 -1.314330 1.064951 0.000000 0.000000 0.000000 5.857317 -0.526661 -1.929275 -6.913709 22.329290 7.354694 5.585337 27.809078 -11.493649 0.000000 0.000000 0.000000 6.517847 -0.733034 -2.096565 -1.598621 -9.078506 -21.337535 -2.969908 -0.078246 -2.018818 -21.693912 -19.232500 -13.976185 -5.814918 -49.978403 -6.094880 0.000000 0.000000 0.000000 5.892473 0.047834 -1.663732 1.841363 12.189514 8.798971 2.163241 3.923495 1.579970 11.092117 56.550575 14.641185 7.550959 76.582355 -14.711056 0.000000 0.000000 0.000000 
0.438360 86.410805 -0.651340 0.000000 0.000000 0.000000 -21.410270 -76.180078 -19.814661 -29.408414 14.220108 46.863130 26.279986 7.715625 -3.482843 15.779562 -4.573774 -19.669362 -5.829823 -1.543097 4.152623 0.000000 0.000000 0.000000 -16.116262 -72.338383 -13.900322 -30.422168 -1.180897 -19.609335 42.280835 6.793765 -7.481954 -10.067812 0.580167 18.861219 5.604241 1.549112 1.409026 0.000000 0.000000 0.000000 -24.768464 -75.384497 -22.203290 4.804616 0.191356 0.553479 5.062920 -0.818028 -1.339647 0.541162 -1.216720 1.521647 0.000000 0.000000 0.000000 5.562574 -0.825664 -1.571389 -6.529301 22.745510 7.711121 6.231112 29.691474 -11.705057 0.000000 0.000000 0.000000 6.872100 -1.114911 -1.783617 -1.937086 -11.078352 -21.746050 -2.940010 -0.404999 -2.731075 -12.620765 -22.625483 -14.135972 -5.083875 -58.338046 -5.737105 0.000000 0.000000 0.000000 6.101852 -0.116316 -1.104518 1.530517 11.031928 10.983418 0.016340 3.688487 1.020233 11.022406 52.047599 18.258216 5.023459 70.498016 -10.411408 0.000000 0.000000 0.000000 
0.554565 87.214355 -0.714767 0.000000 0.000000 0.000000 -17.934106 -75.621894 -16.556893 -26.041488 13.959868 45.453078 22.520894 8.825842 -3.709604 15.894945 -4.996111 -20.905017 -5.767617 -1.887955 5.201046 0.000000 0.000000 0.000000 -12.541843 -70.863930 -10.543519 -28.527919 -0.425250 -19.464514 39.722857 5.904450 -7.460542 -8.845694 -0.551387 19.220004 5.010915 1.344893 1.672049 0.000000 0.000000 0.000000 -23.899814 -74.897997 -21.114591 5.304607 -0.034531 0.622129 5.060326 -1.464777 -0.753086 0.448325 -1.389082 1.769846 0.000000 0.000000 0.000000 5.190029 -1.334905 -1.116948 -5.646784 23.633348 7.787162 6.617074 31.517116 -11.841152 0.000000 0.000000 0.000000 6.996382 -1.699834 -1.368159 -2.029319 -12.931836 -21.063404 -2.748370 -0.544089 -3.526374 -5.485675 -29.526717 -11.702992 -3.478650 -67.352270 -4.034220 0.000000 0.000000 0.000000 6.149774 -0.617032 -0.432755 1.140979 10.002523 13.632428 -1.913015 2.674866 0.342526 10.633747 48.837430 21.268680 4.704381 64.250408 -7.972446 0.000000 0.000000 0.000000 
